<mxfile host="app.diagrams.net" modified="2022-02-11T09:53:11.258Z" agent="5.0 (Windows NT 10.0; Win64; x64) AppleWebKit/537.36 (KHTML, like Gecko) Chrome/98.0.4758.80 Safari/537.36 Edg/98.0.1108.50" etag="EMk5hpcglprhzlOyVI3X" version="15.8.8" type="github">
  <diagram id="bAJJgyGo361LRVaVOba3" name="第 1 页">
    <mxGraphModel dx="746" dy="601" grid="1" gridSize="10" guides="1" tooltips="1" connect="1" arrows="1" fold="1" page="1" pageScale="1" pageWidth="827" pageHeight="1169" math="0" shadow="0">
      <root>
        <mxCell id="0" />
        <mxCell id="1" parent="0" />
        <mxCell id="BP7B65Qs-DyubiPBRYJQ-4" value="" style="edgeStyle=orthogonalEdgeStyle;rounded=0;orthogonalLoop=1;jettySize=auto;html=1;" edge="1" parent="1" source="BP7B65Qs-DyubiPBRYJQ-1" target="BP7B65Qs-DyubiPBRYJQ-3">
          <mxGeometry relative="1" as="geometry" />
        </mxCell>
        <mxCell id="BP7B65Qs-DyubiPBRYJQ-1" value="ui选择" style="rounded=0;whiteSpace=wrap;html=1;" vertex="1" parent="1">
          <mxGeometry x="140" y="140" width="120" height="60" as="geometry" />
        </mxCell>
        <mxCell id="BP7B65Qs-DyubiPBRYJQ-6" value="" style="edgeStyle=orthogonalEdgeStyle;rounded=0;orthogonalLoop=1;jettySize=auto;html=1;" edge="1" parent="1" source="BP7B65Qs-DyubiPBRYJQ-3" target="BP7B65Qs-DyubiPBRYJQ-5">
          <mxGeometry relative="1" as="geometry" />
        </mxCell>
        <mxCell id="BP7B65Qs-DyubiPBRYJQ-3" value="设置flag&lt;br&gt;以及窗口句柄" style="whiteSpace=wrap;html=1;rounded=0;" vertex="1" parent="1">
          <mxGeometry x="140" y="280" width="120" height="60" as="geometry" />
        </mxCell>
        <mxCell id="BP7B65Qs-DyubiPBRYJQ-8" value="" style="edgeStyle=orthogonalEdgeStyle;rounded=0;orthogonalLoop=1;jettySize=auto;html=1;" edge="1" parent="1" source="BP7B65Qs-DyubiPBRYJQ-5" target="BP7B65Qs-DyubiPBRYJQ-7">
          <mxGeometry relative="1" as="geometry" />
        </mxCell>
        <mxCell id="BP7B65Qs-DyubiPBRYJQ-5" value="点确认" style="whiteSpace=wrap;html=1;rounded=0;" vertex="1" parent="1">
          <mxGeometry x="140" y="420" width="120" height="60" as="geometry" />
        </mxCell>
        <mxCell id="BP7B65Qs-DyubiPBRYJQ-10" value="" style="edgeStyle=orthogonalEdgeStyle;rounded=0;orthogonalLoop=1;jettySize=auto;html=1;" edge="1" parent="1" source="BP7B65Qs-DyubiPBRYJQ-7" target="BP7B65Qs-DyubiPBRYJQ-9">
          <mxGeometry relative="1" as="geometry" />
        </mxCell>
        <mxCell id="BP7B65Qs-DyubiPBRYJQ-7" value="创建namger" style="whiteSpace=wrap;html=1;rounded=0;" vertex="1" parent="1">
          <mxGeometry x="140" y="560" width="120" height="60" as="geometry" />
        </mxCell>
        <mxCell id="BP7B65Qs-DyubiPBRYJQ-9" value="设置句柄，创建pwcatchre" style="whiteSpace=wrap;html=1;rounded=0;" vertex="1" parent="1">
          <mxGeometry x="340" y="560" width="120" height="60" as="geometry" />
        </mxCell>
      </root>
    </mxGraphModel>
  </diagram>
</mxfile>
